<svg id="visual" viewBox="0 0 900 600" width="900" height="600" xmlns="http://www.w3.org/2000/svg" xmlns:xlink="http://www.w3.org/1999/xlink" version="1.1"><rect x="0" y="0" width="900" height="600" fill="#fff"></rect><path d="M0 339L12.5 337.8C25 336.7 50 334.3 75 343.2C100 352 125 372 150 362.7C175 353.3 200 314.7 225 318C250 321.3 275 366.7 300 386.8C325 407 350 402 375 403.8C400 405.7 425 414.3 450 402.8C475 391.3 500 359.7 525 344.7C550 329.7 575 331.3 600 332.3C625 333.3 650 333.7 675 332C700 330.3 725 326.7 750 316.8C775 307 800 291 825 282.8C850 274.7 875 274.3 887.5 274.2L900 274L900 601L887.5 601C875 601 850 601 825 601C800 601 775 601 750 601C725 601 700 601 675 601C650 601 625 601 600 601C575 601 550 601 525 601C500 601 475 601 450 601C425 601 400 601 375 601C350 601 325 601 300 601C275 601 250 601 225 601C200 601 175 601 150 601C125 601 100 601 75 601C50 601 25 601 12.5 601L0 601Z" fill="#1974e9"></path><path d="M0 381L12.5 392.7C25 404.3 50 427.7 75 426.7C100 425.7 125 400.3 150 384.3C175 368.3 200 361.7 225 357.8C250 354 275 353 300 354.3C325 355.7 350 359.3 375 369.8C400 380.3 425 397.7 450 409.5C475 421.3 500 427.7 525 423C550 418.3 575 402.7 600 397C625 391.3 650 395.7 675 384.7C700 373.7 725 347.3 750 343.5C775 339.7 800 358.3 825 374.5C850 390.7 875 404.3 887.5 411.2L900 418L900 601L887.5 601C875 601 850 601 825 601C800 601 775 601 750 601C725 601 700 601 675 601C650 601 625 601 600 601C575 601 550 601 525 601C500 601 475 601 450 601C425 601 400 601 375 601C350 601 325 601 300 601C275 601 250 601 225 601C200 601 175 601 150 601C125 601 100 601 75 601C50 601 25 601 12.5 601L0 601Z" fill="#186ce2"></path><path d="M0 398L12.5 399.5C25 401 50 404 75 399.7C100 395.3 125 383.7 150 377.7C175 371.7 200 371.3 225 384.5C250 397.7 275 424.3 300 437C325 449.7 350 448.3 375 447.5C400 446.7 425 446.3 450 440.3C475 434.3 500 422.7 525 409.3C550 396 575 381 600 387.5C625 394 650 422 675 422C700 422 725 394 750 385.3C775 376.7 800 387.3 825 406C850 424.7 875 451.3 887.5 464.7L900 478L900 601L887.5 601C875 601 850 601 825 601C800 601 775 601 750 601C725 601 700 601 675 601C650 601 625 601 600 601C575 601 550 601 525 601C500 601 475 601 450 601C425 601 400 601 375 601C350 601 325 601 300 601C275 601 250 601 225 601C200 601 175 601 150 601C125 601 100 601 75 601C50 601 25 601 12.5 601L0 601Z" fill="#1964dc"></path><path d="M0 486L12.5 480C25 474 50 462 75 459.2C100 456.3 125 462.7 150 461.8C175 461 200 453 225 445.8C250 438.7 275 432.3 300 440.7C325 449 350 472 375 472.5C400 473 425 451 450 448.8C475 446.7 500 464.3 525 471.2C550 478 575 474 600 475.8C625 477.7 650 485.3 675 479.5C700 473.7 725 454.3 750 442.7C775 431 800 427 825 423.2C850 419.3 875 415.7 887.5 413.8L900 412L900 601L887.5 601C875 601 850 601 825 601C800 601 775 601 750 601C725 601 700 601 675 601C650 601 625 601 600 601C575 601 550 601 525 601C500 601 475 601 450 601C425 601 400 601 375 601C350 601 325 601 300 601C275 601 250 601 225 601C200 601 175 601 150 601C125 601 100 601 75 601C50 601 25 601 12.5 601L0 601Z" fill="#1a5cd5"></path><path d="M0 477L12.5 477C25 477 50 477 75 482.5C100 488 125 499 150 506.7C175 514.3 200 518.7 225 513.7C250 508.7 275 494.3 300 493.3C325 492.3 350 504.7 375 504.7C400 504.7 425 492.3 450 492.8C475 493.3 500 506.7 525 510.7C550 514.7 575 509.3 600 502.3C625 495.3 650 486.7 675 487.2C700 487.7 725 497.3 750 494.8C775 492.3 800 477.7 825 481C850 484.3 875 505.7 887.5 516.3L900 527L900 601L887.5 601C875 601 850 601 825 601C800 601 775 601 750 601C725 601 700 601 675 601C650 601 625 601 600 601C575 601 550 601 525 601C500 601 475 601 450 601C425 601 400 601 375 601C350 601 325 601 300 601C275 601 250 601 225 601C200 601 175 601 150 601C125 601 100 601 75 601C50 601 25 601 12.5 601L0 601Z" fill="#1c54ce"></path><path d="M0 496L12.5 501.5C25 507 50 518 75 521.7C100 525.3 125 521.7 150 516C175 510.3 200 502.7 225 498C250 493.3 275 491.7 300 495.2C325 498.7 350 507.3 375 516.3C400 525.3 425 534.7 450 529.2C475 523.7 500 503.3 525 505.8C550 508.3 575 533.7 600 543.8C625 554 650 549 675 543C700 537 725 530 750 529.8C775 529.7 800 536.3 825 538.3C850 540.3 875 537.7 887.5 536.3L900 535L900 601L887.5 601C875 601 850 601 825 601C800 601 775 601 750 601C725 601 700 601 675 601C650 601 625 601 600 601C575 601 550 601 525 601C500 601 475 601 450 601C425 601 400 601 375 601C350 601 325 601 300 601C275 601 250 601 225 601C200 601 175 601 150 601C125 601 100 601 75 601C50 601 25 601 12.5 601L0 601Z" fill="#1e4cc7"></path><path d="M0 557L12.5 557.7C25 558.3 50 559.7 75 559C100 558.3 125 555.7 150 558.3C175 561 200 569 225 571.2C250 573.3 275 569.7 300 561.3C325 553 350 540 375 543.2C400 546.3 425 565.7 450 574.2C475 582.7 500 580.3 525 571.8C550 563.3 575 548.7 600 549.3C625 550 650 566 675 572.3C700 578.7 725 575.3 750 572.2C775 569 800 566 825 565.7C850 565.3 875 567.7 887.5 568.8L900 570L900 601L887.5 601C875 601 850 601 825 601C800 601 775 601 750 601C725 601 700 601 675 601C650 601 625 601 600 601C575 601 550 601 525 601C500 601 475 601 450 601C425 601 400 601 375 601C350 601 325 601 300 601C275 601 250 601 225 601C200 601 175 601 150 601C125 601 100 601 75 601C50 601 25 601 12.5 601L0 601Z" fill="#2044c0"></path></svg>